<?xml version="1.0" standalone="no"?>
<!DOCTYPE svg PUBLIC "-//W3C//DTD SVG 20010904//EN"
 "http://www.w3.org/TR/2001/REC-SVG-20010904/DTD/svg10.dtd">
<svg version="1.0" xmlns="http://www.w3.org/2000/svg"
 width="512.000000pt" height="512.000000pt" viewBox="0 0 512.000000 512.000000"
 preserveAspectRatio="xMidYMid meet">
<metadata>
Created by potrace 1.14, written by Peter Selinger 2001-2017
</metadata>
<g transform="translate(0.000000,512.000000) scale(0.100000,-0.100000)"
fill="#000000" stroke="none">
<path d="M2345 4629 c-387 -41 -787 -206 -1087 -447 -434 -351 -711 -864 -768
-1421 -28 -283 4 -572 96 -850 257 -782 951 -1338 1773 -1421 283 -28 572 4
850 96 782 257 1336 948 1420 1773 54 527 -113 1089 -446 1501 -445 550 -1143
842 -1838 769z m-423 -1445 c51 -17 109 -67 134 -116 56 -109 4 -266 -108
-324 -81 -42 -205 -23 -272 42 -46 45 -66 83 -73 144 -21 180 146 313 319 254z
m1440 0 c51 -17 109 -67 134 -116 25 -48 29 -128 10 -186 -54 -162 -268 -214
-390 -96 -46 45 -66 83 -73 144 -21 180 146 313 319 254z m-1551 -1000 c12
-10 37 -44 57 -74 78 -122 222 -245 357 -305 189 -84 441 -89 635 -13 150 58
289 170 387 311 66 93 84 107 141 107 76 0 119 -36 136 -116 18 -81 -167 -314
-343 -433 -202 -138 -423 -199 -674 -188 -157 7 -274 35 -413 101 -200 95
-366 244 -471 423 -43 73 -30 153 31 193 40 27 125 23 157 -6z"/>
</g>
</svg>
